<?xml version="1.0" encoding="UTF-8"?>
<svg id="Camada_1" xmlns="http://www.w3.org/2000/svg" version="1.1" viewBox="0 0 1000 567">
  <!-- Generator: Adobe Illustrator 30.4.0, SVG Export Plug-In . SVG Version: 2.1.4 Build 226)  -->
  <defs>
    <style>
      .st0 {
        fill: #fff;
      }

      .st1 {
        fill: #14213d;
      }
    </style>
  </defs>
  <polygon class="st1" points="829.96 461.88 850.71 462.08 851.06 462.57 823.49 462.81 633.27 464.79 633.24 459.51 711.28 460.15 822.94 461.62 829.96 461.88"/>
  <g>
    <polygon class="st1" points="485.64 560.02 430.97 508.94 431.04 438.85 485.7 487.47 485.64 560.02"/>
    <polygon class="st1" points="490.79 559.71 490.71 487.42 542.46 439.96 542.49 511.66 490.79 559.71"/>
    <polygon class="st1" points="547.4 440.19 575.58 434.7 638.69 422.4 547.45 507.32 547.4 440.19"/>
    <polygon class="st1" points="426.03 439.08 426.03 504.6 337.78 422.66 370.99 428.81 426.03 439.08"/>
    <polygon class="st1" points="469.05 465.53 469 430.07 485.69 413.95 485.69 480.88 469.05 465.53"/>
    <polygon class="st1" points="507.35 465.06 490.75 480.74 490.74 414.19 507.23 429.75 507.35 465.06"/>
    <polygon class="st1" points="636.45 417.73 544.97 435.57 559.31 417.32 631.33 417.36 636.45 417.73"/>
    <polygon class="st1" points="156.68 462.82 125.71 462.61 125.41 462.13 146.56 461.89 155.17 461.6 221.89 460.7 343.14 459.53 343.12 464.79 156.68 462.82"/>
    <polygon class="st1" points="370.9 423.71 339.85 417.78 353.67 417.35 416.53 417.33 430.34 435.01 370.9 423.71"/>
  </g>
  <polygon class="st1" points="768.97 418.06 747.66 418.3 652.12 420.38 652.22 415.44 747.1 417.08 754.69 417.39 767.98 417.59 768.97 418.06"/>
  <path class="st1" d="M229.53,418.3l-21.65-.17-.32-.46,13.72-.28,9.2-.31,93.44-1.69c.28,1.66.32,2.8.21,4.95l-86.81-1.77-7.8-.26h.01Z"/>
  <g>
    <g>
      <polygon class="st1" points="487.3 72.95 376.45 166 330.22 204.64 330.32 146.96 444.84 44 487.27 5.98 594.03 102.39 644.37 148.02 644.33 205.12 550.16 125.79 487.3 72.95"/>
      <polygon class="st1" points="433.02 203.83 345.47 203.84 392.06 163.81 477.07 163.84 433.02 203.83"/>
    </g>
    <g>
      <path class="st1" d="M275.81,350.79l-18.98.16-21.05-33.4h-17.8l-.11,33.48h-16.16l.32-94.65,39.31.07c6.11.01,11.83,1.47,17.11,4.1,5.63,3.37,9.92,7.93,12.25,14.09,4.68,17.18-.19,33.69-18.04,40.09l23.16,36.05h0ZM253.72,295.77c3.14-5.74,3.13-12.02.21-17.54-2.91-4-7.51-6.65-12.74-6.69l-23.15-.19-.06,31.63,22.64-.16c5.25-.04,9.95-2.94,13.09-7.05h0Z"/>
      <path class="st1" d="M700.09,350.94l-19.11.06-21.35-33.33-17.83-.17-.02,33.47-16.03.05.06-94.49h39.22c4.62,0,9.03.97,13.3,2.26,7.17,2.64,12.73,7.5,15.81,14.55,5.71,17.17.96,35.46-17.55,41.64l23.5,35.96h0ZM676.5,297.53c4.63-6.28,4.75-14.49.37-20.67-3.21-3.31-7.58-5.39-12.4-5.42l-22.71-.12v31.66l22.16-.1c4.76-.02,9.1-2.01,12.59-5.36h0Z"/>
      <polygon class="st1" points="980.75 310.46 938.18 310.49 938.13 335.8 987.19 335.82 987.3 351.01 922.1 351.01 922.21 256.38 985.97 256.49 986 271.29 938.18 271.29 938.16 295.44 980.73 295.42 980.75 310.46"/>
      <polygon class="st1" points="605.39 310.48 563.15 310.47 563.12 335.82 612.08 335.81 612.08 351 546.95 350.99 547.16 256.52 610.98 256.55 611.04 271.31 563.15 271.29 563.11 295.47 605.38 295.49 605.39 310.48"/>
      <path class="st1" d="M79.46,328.44l-41.1-.05-8.71,22.62-16.95-.09,38.29-95.06,15.73-.06,39.15,95.17h-17.47l-8.94-22.54h0ZM73.63,313.49l-14.91-37.5-14.68,37.54,29.58-.04h.01Z"/>
      <path class="st1" d="M513.96,350.6c-18.25,5.16-37.17-.19-50.33-13.46l9.4-12.13c4.96,4.16,9.83,8.07,15.91,10.27,6.44,2.32,13.15,3.23,19.55,1.13,4.94-1.62,7.99-5.65,8.25-10.42.27-4.94-2.46-9.59-7.42-11.16l-12.92-4.09c-5.62-1.78-11.23-3.14-16.37-5.78-8.02-4.11-12.37-11.42-12.79-20.28-.62-13.35,7.39-24.51,20.41-28.1,15.08-4.16,31.1-.09,42.99,10.25l-8.55,12.69c-9.03-7.28-20.04-12.26-30.9-8.49-4.42,1.54-7.24,5.27-7.53,9.42-.33,4.77,2.25,8.59,6.77,10.66,10.96,5.01,21.48,4.91,32.62,12.3,5.99,3.97,9.37,10,9.82,17.23.41,6.51-.27,13.02-3.81,18.63-3.38,5.36-8.58,9.5-15.11,11.34h.01Z"/>
      <path class="st1" d="M164.91,335.33c5.75-2.23,9.61-6.03,13.67-10.48l11.01,10.87c-8.45,11.4-21.74,17.48-36.03,17.11-27-.7-44.61-23.25-44.06-49.91.2-9.64,2.42-18.67,7.35-26.79,9.24-15.21,25.72-23.19,43.42-21.22,11.35,1.26,21.63,6.33,28.61,15.05l-10.39,11.98-8.51-7.54c-14.17-8.79-32.21-4.01-39.75,11.25-5.47,11.09-5.45,25,.21,36.06,6.54,12.79,21.04,18.82,34.47,13.6v.02h0Z"/>
      <path class="st1" d="M881.9,336.41c7.33-1.76,12.71-6.26,17.37-11.53l10.71,10.85c-8.6,11.69-22.24,17.82-36.86,17.1-26.37-1.31-43.08-22.92-43.15-48.74-.02-9.2,1.78-17.8,6.07-25.74,8.71-16.14,25.3-25.06,43.58-23.57,11.69.95,22.23,5.93,29.83,15.06l-10.23,12-7.79-6.86c-7.22-4.95-16.02-6.31-24.94-3.4-18.19,5.94-24.32,30.22-16.52,48.23,5.45,12.58,18.34,19.87,31.93,16.62v-.02h0Z"/>
      <polygon class="st1" points="770.85 256.54 788.13 256.62 752.25 351.29 737.02 351.23 701.23 256.6 718.88 256.47 744.92 327.97 770.85 256.54"/>
      <polygon class="st1" points="456.86 335.77 456.94 350.99 395.8 351 395.82 256.56 411.94 256.55 411.96 335.76 456.86 335.77"/>
      <polygon class="st1" points="384.24 335.78 384.27 350.98 323.12 351.01 323.12 256.53 339.15 256.53 339.17 335.8 384.24 335.78"/>
      <rect class="st1" x="288.21" y="256.51" width="15.99" height="94.61"/>
      <rect class="st1" x="799.35" y="256.5" width="15.98" height="94.57"/>
      <path class="st0" d="M253.72,295.77c-3.13,4.11-7.84,7.01-13.09,7.05l-22.64.16.06-31.63,23.15.19c5.23.04,9.83,2.7,12.74,6.69,2.92,5.52,2.92,11.8-.21,17.54h0Z"/>
      <path class="st0" d="M676.5,297.53c-3.49,3.35-7.82,5.34-12.59,5.36l-22.15.1v-31.66l22.7.12c4.81.03,9.19,2.1,12.4,5.42,4.38,6.18,4.26,14.39-.37,20.67h.01Z"/>
      <polygon class="st0" points="73.63 313.49 44.05 313.53 58.72 275.99 73.63 313.49"/>
    </g>
  </g>
</svg>