<?xml version="1.0" encoding="UTF-8"?>
<svg id="Camada_1" data-name="Camada 1" xmlns="http://www.w3.org/2000/svg" viewBox="0 0 365.57 353.86">
  <defs>
    <style>
      .cls-1 {
        fill: #14213d;
      }
    </style>
  </defs>
  <g>
    <path class="cls-1" d="M336.72,184.14c-.96,4.32-5.42,6.32-8.85,7.37l-193.74-.02c-15.92-10.13-33.88-14.48-52.78-13.87l-23.17-104.84-8.98-42.44-28.05-6.3c-7.35-1.65-10-10.95-6.6-17.16C16.42,2.44,21.37-.9,26.54.22l37.06,8.01c5.11,1.89,7.36,5.6,8.39,10.53l6.08,29.07h275.41c6.8,2.02,11.84,7.08,10.24,14.33l-27,121.99Z"/>
    <path class="cls-1" d="M169.45,269.91c0,46.36-37.58,83.95-83.95,83.95S1.55,316.28,1.55,269.91s37.58-83.95,83.95-83.95,83.95,37.58,83.95,83.95ZM100.24,319.25l.05-34.54h34.13c8.51,0,15.1-6.51,15.17-14.66s-6.26-14.87-14.75-14.89l-34.55-.07-.04-34.59c0-8.62-7.16-14.9-15.28-14.67s-14.24,6.72-14.25,15.01l-.03,34.26-34.24.05c-8.56.01-15.13,6.68-15.05,14.9s6.3,14.61,14.73,14.62l34.56.07.06,34.5c.01,8.46,6.87,14.81,14.92,14.77,7.58-.04,14.57-6.16,14.58-14.76Z"/>
  </g>
  <g>
    <path class="cls-1" d="M325.33,234.12c-1.7,3.09-5.65,5.69-9.78,5.69l-142.72.06c-3.15-9.21-7.4-16.86-12.74-24.55h159.31c7.41,3.22,9.93,11.5,5.92,18.8Z"/>
    <circle class="cls-1" cx="266.12" cy="279" r="32.2"/>
  </g>
</svg>