<?xml version="1.0" encoding="UTF-8"?>
<svg id="Camada_1" data-name="Camada 1" xmlns="http://www.w3.org/2000/svg" viewBox="0 0 365.57 353.86">
  <defs>
    <style>
      .cls-1 {
        fill: #14213d;
      }
    </style>
  </defs>
  <path class="cls-1" d="M327.93,310.64h-150.97c25.67-52.29-1.99-114.52-58-130.58V27.14C121.65,12.88,131.81,2.58,146.06.01h182.43c14.63,2.03,25.72,13.13,27.75,27.77v255.73c-2.69,14.53-13.32,24.64-28.31,27.13ZM285.95,88.81c5.91-.68,9-5.79,8.23-10.52-.83-5.13-5.15-8.36-10.53-8.02-6.24.4-12.18-.33-18.44-.34l-77.38-.15c-5.32-.01-7.61,7.23-6.61,11.14,1.2,4.71,5.33,7.17,10.79,7.21l75.45.52c6.18.04,12.23.88,18.48.16ZM285.95,147.18c5.92-.59,8.99-5.84,8.24-10.49-.84-5.18-5.15-8.34-10.53-8.04-6.76.38-13.16-.31-19.94-.32l-75.69-.14c-5.23,0-7.62,6.49-6.91,10.5s4.26,7.75,9.42,7.79l74.69.57c6.95.05,13.69.83,20.72.13ZM285.95,215.32c5.92-.75,9-5.76,8.23-10.53-.82-5.13-5.15-7.91-10.53-8.02l-15.45-.31-74.87-.62c-5.47-.05-10.38.95-11.95,6.46-1.35,4.75.88,10.88,6.62,11.54l7.39.86,73.57.44c5.64.03,11.26.91,16.98.19Z"/>
  <path class="cls-1" d="M178.14,269.45c0,46.62-37.79,84.41-84.41,84.41S9.33,316.07,9.33,269.45s37.79-84.41,84.41-84.41,84.41,37.79,84.41,84.41ZM108.6,318.58v-34.29s33.59.09,33.59.09c8.81.02,15.72-5.91,15.98-14.57.25-8.36-6.45-15.21-15.23-15.21l-34.33.02-.02-34.57c0-8.52-6.62-14.92-14.72-15.05s-14.92,6.19-14.95,14.63l-.09,34.97-34.74.04c-8.57.01-14.98,7.07-14.79,15.18s6.55,14.44,14.82,14.45l34.72.05.17,35.61c.04,8.41,7.86,14.38,15.55,13.94s14.05-6.7,14.05-15.29Z"/>
</svg>