<?xml version="1.0" encoding="UTF-8"?>
<svg id="Camada_1" data-name="Camada 1" xmlns="http://www.w3.org/2000/svg" viewBox="0 0 365.57 353.86">
  <defs>
    <style>
      .cls-1 {
        fill: #14213d;
      }
    </style>
  </defs>
  <g>
    <circle class="cls-1" cx="227.65" cy="83.74" r="83.74"/>
    <path class="cls-1" d="M365.53,280.28c-1.36,16.61-13.45,28.48-29.78,31.01h-168.08c18.4-37.05,10.83-80.64-18.66-109.13,21.61-12.21,44.8-18.03,68.75-19.63,7.08-.33,13.58-.36,20.61.09,51.58,3.15,102.54,30.38,123.64,78.77,2.65,6.07,3.78,11.75,3.53,18.88Z"/>
  </g>
  <path class="cls-1" d="M169.18,269.27c0,46.72-37.87,84.59-84.59,84.59S0,315.99,0,269.27s37.87-84.59,84.59-84.59,84.59,37.87,84.59,84.59ZM99.47,318.84v-34.67s34.94-.03,34.94-.03c8.48,0,14.95-7.14,14.79-15.16s-6.54-14.54-14.77-14.55l-34.98-.03.02-34.63c0-8.52-6.78-15.14-14.93-15.11-8.04.03-14.84,6.6-14.84,15.11l.02,34.65-34.37-.05c-8.5-.01-15.19,6.33-15.38,14.65-.18,7.81,6.22,15.09,14.66,15.1l35.09.05v34.65c-.02,8.47,6.82,15.05,14.81,15.04,8.17-.01,14.95-6.52,14.94-15.03Z"/>
</svg>