<?xml version="1.0" encoding="UTF-8"?>
<svg id="Camada_1" data-name="Camada 1" xmlns="http://www.w3.org/2000/svg" viewBox="0 0 297.84 353.86">
  <defs>
    <style>
      .cls-1 {
        fill: #ff9c0f;
      }
    </style>
  </defs>
  <path class="cls-1" d="M251.37,96.86l27.86-27.86-13.16-13.16-29.05,29.05c-22.96-16.92-50.32-26.84-78.78-28.58V18.61h46.53V0h-111.68v18.61h46.53v37.7C57.54,61.45-4.84,132.15.3,214.24c5.14,82.08,75.84,144.46,157.93,139.33,82.08-5.14,144.46-75.84,139.33-157.93-2.35-37.58-18.85-72.88-46.18-98.78ZM168.04,279.01c.03,6.27.06,12.54.09,18.81h-34.99c.03-6.09.06-12.18.09-18.27-16.76-3-31.86-11.95-42.53-25.21,8.75-8.63,17.49-17.25,26.24-25.88,8.66,11.22,22.31,17.43,36.46,16.61,4.07-.08,8.02-1.36,11.35-3.69,3.35-2.44,4.91-6.65,3.94-10.68-1.98-6.31-10.16-7.58-16.75-8.08-12.61-.25-24.92-3.94-35.59-10.68-13.97-10.6-20.53-28.34-16.82-45.48,4.17-16.97,16.95-30.49,33.65-35.61-.01-6.38-.03-12.76-.04-19.15,11.65,0,23.31,0,34.96,0l-.06,18.3c14.82,3.18,28.22,11.07,38.19,22.49-8.59,8.48-17.17,16.95-25.76,25.42-7.36-9.02-18.49-14.12-30.14-13.81-3.82.12-7.5,1.46-10.5,3.82-3.01,2.47-4.2,6.52-3,10.22,2.27,3.86,6.28,6.37,10.74,6.72,10.14,1.08,20.2,2.85,30.1,5.3,5.61,2.01,10.72,5.19,15,9.34,10.39,9.94,15.63,24.11,14.19,38.41-3.04,20.49-18.54,36.91-38.83,41.12Z"/>
</svg>