<?xml version="1.0" encoding="UTF-8"?>
<svg id="Camada_1" data-name="Camada 1" xmlns="http://www.w3.org/2000/svg" viewBox="0 0 297.84 279.23">
  <defs>
    <style>
      .cls-1 {
        fill: #4ec9b4;
        fill-rule: evenodd;
      }
    </style>
  </defs>
  <path class="cls-1" d="M265.27,209.42c0,5.14-4.17,9.31-9.31,9.31h-3.51c5.11,6.37,8.17,14.47,8.17,23.27,0,20.56-16.67,37.23-37.23,37.23s-37.23-16.67-37.23-37.23c0-8.8,3.06-16.9,8.17-23.27h-44.25c5.11,6.37,8.17,14.47,8.17,23.27,0,20.56-16.67,37.23-37.23,37.23s-37.23-16.67-37.23-37.23c0-8.8,3.06-16.9,8.17-23.27h-3.51c-4.18,0-7.84-2.78-8.97-6.81l-13.7-49.09c-1.22-2.12-2.17-4.43-2.81-6.88l-12.12-46.6L25.51,18.62H9.31C4.17,18.62,0,14.45,0,9.31S4.17,0,9.31,0h23.27c4.18,0,7.84,2.78,8.97,6.81l11.09,39.73h235.91c2.88,0,5.6,1.33,7.36,3.61,1.76,2.28,2.37,5.25,1.64,8.04l-25.42,97.76c-3.2,12.31-14.31,20.9-27.02,20.9H89.97c-.33,0-.66,0-.98-.02l6.5,23.29h160.47c5.14,0,9.31,4.17,9.31,9.31ZM102.38,242c0-10.28,8.33-18.62,18.62-18.62s18.62,8.34,18.62,18.62-8.33,18.62-18.62,18.62-18.62-8.33-18.62-18.62ZM223.38,223.38c-10.28,0-18.62,8.34-18.62,18.62s8.33,18.62,18.62,18.62,18.62-8.33,18.62-18.62-8.33-18.62-18.62-18.62ZM211.92,89.73c3.29-3.95,2.76-9.82-1.19-13.11-3.95-3.29-9.82-2.76-13.11,1.19l-39.39,47.27-20.77-24.93c-3.29-3.95-9.16-4.48-13.11-1.19-3.95,3.29-4.48,9.16-1.19,13.11l27.92,33.51c1.77,2.12,4.39,3.35,7.15,3.35s5.38-1.23,7.15-3.35l46.54-55.85Z"/>
</svg>